<svg width="760" height="220" viewBox="0 0 760 220" xmlns="http://www.w3.org/2000/svg" role="img" aria-label="Memory hierarchy with DMA prefetch and resident path">
  <rect width="760" height="220" fill="#f7f4ee"/>
  <rect x="26" y="66" width="144" height="88" rx="14" fill="#d9e6f2" stroke="#40617e" stroke-width="2"/>
  <text x="98" y="103" text-anchor="middle" font-size="22" font-family="Arial" fill="#17324a">DRAM</text>
  <text x="98" y="130" text-anchor="middle" font-size="16" font-family="Arial" fill="#17324a">Host tensor pool</text>
  <rect x="216" y="82" width="108" height="56" rx="12" fill="#f9d9b4" stroke="#9a5a16" stroke-width="2"/>
  <text x="270" y="116" text-anchor="middle" font-size="20" font-family="Arial" fill="#5e360d">DMA</text>
  <rect x="378" y="52" width="156" height="116" rx="16" fill="#dcefd7" stroke="#427244" stroke-width="2"/>
  <text x="456" y="86" text-anchor="middle" font-size="22" font-family="Arial" fill="#214e26">On-chip SRAM</text>
  <rect x="404" y="100" width="104" height="28" rx="8" fill="#ffffff" stroke="#427244"/>
  <text x="456" y="119" text-anchor="middle" font-size="15" font-family="Arial" fill="#214e26">resident tile</text>
  <rect x="578" y="44" width="62" height="40" rx="10" fill="#ffffff" stroke="#8f2f2f" stroke-width="2"/>
  <rect x="650" y="44" width="62" height="40" rx="10" fill="#ffffff" stroke="#8f2f2f" stroke-width="2"/>
  <rect x="614" y="104" width="62" height="40" rx="10" fill="#ffffff" stroke="#8f2f2f" stroke-width="2"/>
  <text x="609" y="69" text-anchor="middle" font-size="16" font-family="Arial" fill="#6b1717">Op A</text>
  <text x="681" y="69" text-anchor="middle" font-size="16" font-family="Arial" fill="#6b1717">Op B</text>
  <text x="645" y="129" text-anchor="middle" font-size="16" font-family="Arial" fill="#6b1717">Op C</text>
  <path d="M170 110 L216 110" stroke="#4f5963" stroke-width="3" marker-end="url(#arrow1)"/>
  <path d="M324 110 L378 110" stroke="#4f5963" stroke-width="3" marker-end="url(#arrow1)"/>
  <path d="M534 110 L614 64" stroke="#4f5963" stroke-width="3" marker-end="url(#arrow1)"/>
  <path d="M640 84 L650 84" stroke="#4f5963" stroke-width="3" marker-end="url(#arrow1)"/>
  <path d="M681 84 L645 104" stroke="#4f5963" stroke-width="3" marker-end="url(#arrow1)"/>
  <text x="270" y="73" text-anchor="middle" font-size="14" font-family="Arial" fill="#5e360d">prefetch / refill</text>
  <text x="628" y="168" text-anchor="middle" font-size="15" font-family="Arial" fill="#6b1717">keep computation inside the segment</text>
  <defs>
    <marker id="arrow1" markerWidth="10" markerHeight="10" refX="8" refY="3" orient="auto">
      <polygon points="0 0, 10 3, 0 6" fill="#4f5963"/>
    </marker>
  </defs>
</svg>
